<svg width="86" height="86" viewBox="0 0 86 86" fill="none" xmlns="http://www.w3.org/2000/svg">
<rect width="86" height="86" rx="43" fill="#43A3DF"/>
<path d="M62.3255 56.3848H57.7257C56.2809 56.3848 55.5336 55.5539 54.1771 54.045C53.6171 53.422 52.92 52.6465 52.0003 51.7268C49.0628 48.8944 48.0799 48.8944 47.7569 48.8944C47.1568 48.8944 47.0316 48.8944 47.0316 49.9933V54.1181C47.0316 55.7919 46.0464 56.3848 43.268 56.3848C37.9969 56.3848 32.6059 53.1621 28.8457 47.7634C22.8082 39.2992 21.5 33.2746 21.5 32.2373C21.5 31.426 21.8564 30.4585 23.5545 30.4585H28.1548C29.6431 30.4585 30.2021 31.2321 30.6647 32.5685C33.0775 39.5964 36.7461 44.5282 37.8154 44.5282C38.0084 44.5282 38.1909 44.5282 38.1909 43.2511V36.4773C38.0944 34.7295 37.4981 33.9909 37.0189 33.3979C36.6816 32.9803 36.3629 32.5861 36.3629 31.9937C36.3629 31.2387 36.9797 30.4585 38.0113 30.4585H45.2399C46.8463 30.4585 47.0321 31.696 47.0321 32.6272V41.7408C47.0321 42.3657 47.2357 42.5645 47.2858 42.5802C47.6308 42.5788 47.993 42.3882 49.0757 41.305C52.2764 37.7268 54.6014 32.1126 54.6248 32.0563C55.0802 30.9941 55.901 30.459 57.0678 30.459H61.668C62.4707 30.459 63.0412 30.6783 63.3637 31.1116C63.6681 31.5206 63.7211 32.0711 63.5219 32.7476C62.9041 35.5069 57.4897 43.1546 57.2594 43.4795C56.8342 44.1613 56.7429 44.308 57.247 44.9559C57.4749 45.2741 57.9942 45.7829 58.5447 46.3219C59.1539 46.9187 59.8448 47.5957 60.4028 48.2551C62.8004 50.9518 63.9897 52.615 64.3733 53.808C64.6495 54.7541 64.4225 55.3308 64.1832 55.649C63.9309 55.9844 63.4039 56.3848 62.3255 56.3848Z" fill="white"/>
</svg>
