<svg width="30" height="30" viewBox="0 0 30 30" fill="none" xmlns="http://www.w3.org/2000/svg">
<path fill-rule="evenodd" clip-rule="evenodd" d="M6.75 6.75C6.94891 6.55109 7.2187 6.43934 7.5 6.43934C7.7813 6.43934 8.05109 6.55109 8.25 6.75L23.25 21.75C23.4489 21.9489 23.5606 22.2187 23.5606 22.5C23.5606 22.7813 23.4489 23.0511 23.25 23.25C23.0511 23.4489 22.7813 23.5606 22.5 23.5606C22.2187 23.5606 21.9489 23.4489 21.75 23.25L6.75 8.25C6.55109 8.05109 6.43934 7.7813 6.43934 7.5C6.43934 7.21869 6.55109 6.94891 6.75 6.75Z" fill="#4C5866"/>
<path fill-rule="evenodd" clip-rule="evenodd" d="M23.25 6.75C23.4489 6.94891 23.5607 7.2187 23.5607 7.5C23.5607 7.7813 23.4489 8.05109 23.25 8.25L8.25001 23.25C8.0511 23.4489 7.78132 23.5606 7.50001 23.5606C7.21871 23.5606 6.94893 23.4489 6.75002 23.25C6.5511 23.0511 6.43936 22.7813 6.43936 22.5C6.43936 22.2187 6.5511 21.9489 6.75002 21.75L21.75 6.75C21.9489 6.55109 22.2187 6.43934 22.5 6.43934C22.7813 6.43934 23.0511 6.55109 23.25 6.75Z" fill="#622C8E"/>
</svg>
